{
  "accessors": [
    {
      "bufferView": 2,
      "componentType": 5126,
      "count": 535,
      "max": [
        0.8306034207344055,
        0.08398842066526413,
        0.7203691601753235
      ],
      "min": [
        -0.5379842519760132,
        -0.08398856222629547,
        -0.9511645436286926
      ],
      "type": "VEC3"
    },
    {
      "bufferView": 2,
      "byteOffset": 6420,
      "componentType": 5126,
      "count": 535,
      "max": [
        0.9991933107376099,
        1.0,
        1.0
      ],
      "min": [
        -0.999808669090271,
        -1.0,
        -0.9972361326217651
      ],
      "type": "VEC3"
    },
    {
      "bufferView": 3,
      "componentType": 5126,
      "count": 535,
      "max": [
        0.995031476020813,
        1.0,
        0.9957584738731384,
        1.0
      ],
      "min": [
        -0.9777417778968811,
        -1.0,
        -0.999808669090271,
        -1.0
      ],
      "type": "VEC4"
    },
    {
      "bufferView": 1,
      "componentType": 5126,
      "count": 535,
      "max": [
        0.997058093547821,
        0.9894910454750061
      ],
      "min": [
        0.0058716535568237305,
        0.0227559395134449
      ],
      "type": "VEC2"
    },
    {
      "bufferView": 1,
      "byteOffset": 4280,
      "componentType": 5126,
      "count": 535,
      "max": [
        0.997058093547821,
        0.9894910454750061
      ],
      "min": [
        0.0058716535568237305,
        0.0227559395134449
      ],
      "type": "VEC2"
    },
    {
      "bufferView": 1,
      "byteOffset": 8560,
      "componentType": 5126,
      "count": 535,
      "max": [
        0.997058093547821,
        0.9894910454750061
      ],
      "min": [
        0.0058716535568237305,
        0.0227559395134449
      ],
      "type": "VEC2"
    },
    {
      "bufferView": 1,
      "byteOffset": 12840,
      "componentType": 5126,
      "count": 535,
      "max": [
        0.997058093547821,
        0.9894910454750061
      ],
      "min": [
        0.0058716535568237305,
        0.0227559395134449
      ],
      "type": "VEC2"
    },
    {
      "bufferView": 1,
      "byteOffset": 17120,
      "componentType": 5126,
      "count": 535,
      "max": [
        0.997058093547821,
        0.9894910454750061
      ],
      "min": [
        0.0058716535568237305,
        0.0227559395134449
      ],
      "type": "VEC2"
    },
    {
      "bufferView": 1,
      "byteOffset": 21400,
      "componentType": 5126,
      "count": 535,
      "max": [
        0.997058093547821,
        0.9894910454750061
      ],
      "min": [
        0.0058716535568237305,
        0.0227559395134449
      ],
      "type": "VEC2"
    },
    {
      "bufferView": 1,
      "byteOffset": 25680,
      "componentType": 5126,
      "count": 535,
      "max": [
        0.997058093547821,
        0.9894910454750061
      ],
      "min": [
        0.0058716535568237305,
        0.0227559395134449
      ],
      "type": "VEC2"
    },
    {
      "bufferView": 1,
      "byteOffset": 29960,
      "componentType": 5126,
      "count": 535,
      "max": [
        0.997058093547821,
        0.9894910454750061
      ],
      "min": [
        0.0058716535568237305,
        0.0227559395134449
      ],
      "type": "VEC2"
    },
    {
      "bufferView": 1,
      "byteOffset": 34240,
      "componentType": 5126,
      "count": 535,
      "max": [
        0.997058093547821,
        0.9894910454750061
      ],
      "min": [
        0.0058716535568237305,
        0.0227559395134449
      ],
      "type": "VEC2"
    },
    {
      "bufferView": 1,
      "byteOffset": 38520,
      "componentType": 5126,
      "count": 535,
      "max": [
        0.997058093547821,
        0.9894910454750061
      ],
      "min": [
        0.0058716535568237305,
        0.0227559395134449
      ],
      "type": "VEC2"
    },
    {
      "bufferView": 0,
      "componentType": 5125,
      "count": 1428,
      "type": "SCALAR"
    },
    {
      "bufferView": 2,
      "byteOffset": 12840,
      "componentType": 5126,
      "count": 448,
      "max": [
        1.319516658782959,
        0.22864267230033875,
        0.3487170338630676
      ],
      "min": [
        -0.7252780795097351,
        -0.2286427766084671,
        -0.9644935727119446
      ],
      "type": "VEC3"
    },
    {
      "bufferView": 2,
      "byteOffset": 18216,
      "componentType": 5126,
      "count": 448,
      "max": [
        0.9907988905906677,
        1.0,
        0.9681651592254639
      ],
      "min": [
        -0.9907992482185364,
        -1.0,
        -0.9681649804115295
      ],
      "type": "VEC3"
    },
    {
      "bufferView": 3,
      "byteOffset": 8560,
      "componentType": 5126,
      "count": 448,
      "max": [
        0.7898873090744019,
        0.9828420281410217,
        0.9734973907470703,
        1.0
      ],
      "min": [
        -0.9663796424865723,
        -0.9828420877456665,
        -0.8797462582588196,
        -1.0
      ],
      "type": "VEC4"
    },
    {
      "bufferView": 1,
      "byteOffset": 42800,
      "componentType": 5126,
      "count": 448,
      "max": [
        0.943213939666748,
        0.9634917974472046
      ],
      "min": [
        0.660772442817688,
        0.8798026442527771
      ],
      "type": "VEC2"
    },
    {
      "bufferView": 1,
      "byteOffset": 46384,
      "componentType": 5126,
      "count": 448,
      "max": [
        0.943213939666748,
        0.9634917974472046
      ],
      "min": [
        0.660772442817688,
        0.8798026442527771
      ],
      "type": "VEC2"
    },
    {
      "bufferView": 1,
      "byteOffset": 49968,
      "componentType": 5126,
      "count": 448,
      "max": [
        0.943213939666748,
        0.9634917974472046
      ],
      "min": [
        0.660772442817688,
        0.8798026442527771
      ],
      "type": "VEC2"
    },
    {
      "bufferView": 1,
      "byteOffset": 53552,
      "componentType": 5126,
      "count": 448,
      "max": [
        0.943213939666748,
        0.9634917974472046
      ],
      "min": [
        0.660772442817688,
        0.8798026442527771
      ],
      "type": "VEC2"
    },
    {
      "bufferView": 1,
      "byteOffset": 57136,
      "componentType": 5126,
      "count": 448,
      "max": [
        0.943213939666748,
        0.9634917974472046
      ],
      "min": [
        0.660772442817688,
        0.8798026442527771
      ],
      "type": "VEC2"
    },
    {
      "bufferView": 1,
      "byteOffset": 60720,
      "componentType": 5126,
      "count": 448,
      "max": [
        0.943213939666748,
        0.9634917974472046
      ],
      "min": [
        0.660772442817688,
        0.8798026442527771
      ],
      "type": "VEC2"
    },
    {
      "bufferView": 1,
      "byteOffset": 64304,
      "componentType": 5126,
      "count": 448,
      "max": [
        0.943213939666748,
        0.9634917974472046
      ],
      "min": [
        0.660772442817688,
        0.8798026442527771
      ],
      "type": "VEC2"
    },
    {
      "bufferView": 1,
      "byteOffset": 67888,
      "componentType": 5126,
      "count": 448,
      "max": [
        0.943213939666748,
        0.9634917974472046
      ],
      "min": [
        0.660772442817688,
        0.8798026442527771
      ],
      "type": "VEC2"
    },
    {
      "bufferView": 1,
      "byteOffset": 71472,
      "componentType": 5126,
      "count": 448,
      "max": [
        0.943213939666748,
        0.9634917974472046
      ],
      "min": [
        0.660772442817688,
        0.8798026442527771
      ],
      "type": "VEC2"
    },
    {
      "bufferView": 1,
      "byteOffset": 75056,
      "componentType": 5126,
      "count": 448,
      "max": [
        0.943213939666748,
        0.9634917974472046
      ],
      "min": [
        0.660772442817688,
        0.8798026442527771
      ],
      "type": "VEC2"
    },
    {
      "bufferView": 0,
      "byteOffset": 5712,
      "componentType": 5125,
      "count": 2208,
      "type": "SCALAR"
    },
    {
      "bufferView": 2,
      "byteOffset": 23592,
      "componentType": 5126,
      "count": 756,
      "max": [
        0.27230438590049744,
        2.1321792602539063,
        0.5210005640983582
      ],
      "min": [
        -0.2723042964935303,
        -1.829268217086792,
        -1.8351831436157227
      ],
      "type": "VEC3"
    },
    {
      "bufferView": 2,
      "byteOffset": 32664,
      "componentType": 5126,
      "count": 756,
      "max": [
        1.0,
        1.0,
        1.0
      ],
      "min": [
        -1.0,
        -1.0,
        -1.0
      ],
      "type": "VEC3"
    },
    {
      "bufferView": 3,
      "byteOffset": 15728,
      "componentType": 5126,
      "count": 756,
      "max": [
        1.0,
        1.0,
        1.0,
        1.0
      ],
      "min": [
        -1.0,
        -0.9914270639419556,
        -1.0,
        -1.0
      ],
      "type": "VEC4"
    },
    {
      "bufferView": 1,
      "byteOffset": 78640,
      "componentType": 5126,
      "count": 756,
      "max": [
        0.9758089780807495,
        0.9841877818107605
      ],
      "min": [
        0.007824786007404327,
        0.00048116082325577736
      ],
      "type": "VEC2"
    },
    {
      "bufferView": 1,
      "byteOffset": 84688,
      "componentType": 5126,
      "count": 756,
      "max": [
        0.9758089780807495,
        0.9841877818107605
      ],
      "min": [
        0.007824786007404327,
        0.00048116082325577736
      ],
      "type": "VEC2"
    },
    {
      "bufferView": 1,
      "byteOffset": 90736,
      "componentType": 5126,
      "count": 756,
      "max": [
        0.9758089780807495,
        0.9841877818107605
      ],
      "min": [
        0.007824786007404327,
        0.00048116082325577736
      ],
      "type": "VEC2"
    },
    {
      "bufferView": 1,
      "byteOffset": 96784,
      "componentType": 5126,
      "count": 756,
      "max": [
        0.9758089780807495,
        0.9841877818107605
      ],
      "min": [
        0.007824786007404327,
        0.00048116082325577736
      ],
      "type": "VEC2"
    },
    {
      "bufferView": 1,
      "byteOffset": 102832,
      "componentType": 5126,
      "count": 756,
      "max": [
        0.9758089780807495,
        0.9841877818107605
      ],
      "min": [
        0.007824786007404327,
        0.00048116082325577736
      ],
      "type": "VEC2"
    },
    {
      "bufferView": 1,
      "byteOffset": 108880,
      "componentType": 5126,
      "count": 756,
      "max": [
        0.9758089780807495,
        0.9841877818107605
      ],
      "min": [
        0.007824786007404327,
        0.00048116082325577736
      ],
      "type": "VEC2"
    },
    {
      "bufferView": 1,
      "byteOffset": 114928,
      "componentType": 5126,
      "count": 756,
      "max": [
        0.9758089780807495,
        0.9841877818107605
      ],
      "min": [
        0.007824786007404327,
        0.00048116082325577736
      ],
      "type": "VEC2"
    },
    {
      "bufferView": 1,
      "byteOffset": 120976,
      "componentType": 5126,
      "count": 756,
      "max": [
        0.9758089780807495,
        0.9841877818107605
      ],
      "min": [
        0.007824786007404327,
        0.00048116082325577736
      ],
      "type": "VEC2"
    },
    {
      "bufferView": 1,
      "byteOffset": 127024,
      "componentType": 5126,
      "count": 756,
      "max": [
        0.9758089780807495,
        0.9841877818107605
      ],
      "min": [
        0.007824786007404327,
        0.00048116082325577736
      ],
      "type": "VEC2"
    },
    {
      "bufferView": 1,
      "byteOffset": 133072,
      "componentType": 5126,
      "count": 756,
      "max": [
        0.9758089780807495,
        0.9841877818107605
      ],
      "min": [
        0.007824786007404327,
        0.00048116082325577736
      ],
      "type": "VEC2"
    },
    {
      "bufferView": 0,
      "byteOffset": 14544,
      "componentType": 5125,
      "count": 2160,
      "type": "SCALAR"
    },
    {
      "bufferView": 2,
      "byteOffset": 41736,
      "componentType": 5126,
      "count": 196,
      "max": [
        1.7124056816101074,
        0.21225649118423462,
        0.03656196594238281
      ],
      "min": [
        0.7885189652442932,
        -0.2122565507888794,
        -1.4808824062347412
      ],
      "type": "VEC3"
    },
    {
      "bufferView": 2,
      "byteOffset": 44088,
      "componentType": 5126,
      "count": 196,
      "max": [
        0.8508121371269226,
        1.0,
        0.8841922879219055
      ],
      "min": [
        -0.9566774964332581,
        -1.0,
        -0.6519869565963745
      ],
      "type": "VEC3"
    },
    {
      "bufferView": 3,
      "byteOffset": 27824,
      "componentType": 5126,
      "count": 196,
      "max": [
        -0.27461421489715576,
        0.9614318013191223,
        0.1982528269290924,
        1.0
      ],
      "min": [
        -0.9907143115997314,
        -0.9614328145980835,
        -0.4690162241458893,
        -1.0
      ],
      "type": "VEC4"
    },
    {
      "bufferView": 1,
      "byteOffset": 139120,
      "componentType": 5126,
      "count": 196,
      "max": [
        0.827189564704895,
        0.35269954800605774
      ],
      "min": [
        0.4799940884113312,
        0.013016775250434875
      ],
      "type": "VEC2"
    },
    {
      "bufferView": 1,
      "byteOffset": 140688,
      "componentType": 5126,
      "count": 196,
      "max": [
        0.827189564704895,
        0.35269954800605774
      ],
      "min": [
        0.4799940884113312,
        0.013016775250434875
      ],
      "type": "VEC2"
    },
    {
      "bufferView": 1,
      "byteOffset": 142256,
      "componentType": 5126,
      "count": 196,
      "max": [
        0.827189564704895,
        0.35269954800605774
      ],
      "min": [
        0.4799940884113312,
        0.013016775250434875
      ],
      "type": "VEC2"
    },
    {
      "bufferView": 1,
      "byteOffset": 143824,
      "componentType": 5126,
      "count": 196,
      "max": [
        0.827189564704895,
        0.35269954800605774
      ],
      "min": [
        0.4799940884113312,
        0.013016775250434875
      ],
      "type": "VEC2"
    },
    {
      "bufferView": 1,
      "byteOffset": 145392,
      "componentType": 5126,
      "count": 196,
      "max": [
        0.827189564704895,
        0.35269954800605774
      ],
      "min": [
        0.4799940884113312,
        0.013016775250434875
      ],
      "type": "VEC2"
    },
    {
      "bufferView": 1,
      "byteOffset": 146960,
      "componentType": 5126,
      "count": 196,
      "max": [
        0.827189564704895,
        0.35269954800605774
      ],
      "min": [
        0.4799940884113312,
        0.013016775250434875
      ],
      "type": "VEC2"
    },
    {
      "bufferView": 1,
      "byteOffset": 148528,
      "componentType": 5126,
      "count": 196,
      "max": [
        0.827189564704895,
        0.35269954800605774
      ],
      "min": [
        0.4799940884113312,
        0.013016775250434875
      ],
      "type": "VEC2"
    },
    {
      "bufferView": 1,
      "byteOffset": 150096,
      "componentType": 5126,
      "count": 196,
      "max": [
        0.827189564704895,
        0.35269954800605774
      ],
      "min": [
        0.4799940884113312,
        0.013016775250434875
      ],
      "type": "VEC2"
    },
    {
      "bufferView": 1,
      "byteOffset": 151664,
      "componentType": 5126,
      "count": 196,
      "max": [
        0.827189564704895,
        0.35269954800605774
      ],
      "min": [
        0.4799940884113312,
        0.013016775250434875
      ],
      "type": "VEC2"
    },
    {
      "bufferView": 1,
      "byteOffset": 153232,
      "componentType": 5126,
      "count": 196,
      "max": [
        0.827189564704895,
        0.35269954800605774
      ],
      "min": [
        0.4799940884113312,
        0.013016775250434875
      ],
      "type": "VEC2"
    },
    {
      "bufferView": 0,
      "byteOffset": 23184,
      "componentType": 5125,
      "count": 624,
      "type": "SCALAR"
    }
  ],
  "asset": {
    "extras": {
      "author": "emlase (https://sketchfab.com/emlase)",
      "license": "CC-BY-4.0 (http://creativecommons.org/licenses/by/4.0/)",
      "source": "https://sketchfab.com/3d-models/lp34-flare-gun-e5f1321feb2d4b39bd83e9358c3ee8c4",
      "title": "LP34 Flare Gun"
    },
    "generator": "Sketchfab-12.74.0",
    "version": "2.0"
  },
  "bufferViews": [
    {
      "buffer": 0,
      "byteLength": 25680,
      "name": "floatBufferViews",
      "target": 34963
    },
    {
      "buffer": 0,
      "byteLength": 154800,
      "byteOffset": 25680,
      "byteStride": 8,
      "name": "floatBufferViews",
      "target": 34962
    },
    {
      "buffer": 0,
      "byteLength": 46440,
      "byteOffset": 180480,
      "byteStride": 12,
      "name": "floatBufferViews",
      "target": 34962
    },
    {
      "buffer": 0,
      "byteLength": 30960,
      "byteOffset": 226920,
      "byteStride": 16,
      "name": "floatBufferViews",
      "target": 34962
    }
  ],
  "buffers": [
    {
      "byteLength": 257880,
      "uri": "scene.bin"
    }
  ],
  "images": [
    {
      "uri": "textures/kurki_baseColor.png"
    },
    {
      "uri": "textures/kurki_metallicRoughness.png"
    },
    {
      "uri": "textures/kurki_normal.png"
    },
    {
      "uri": "textures/bolt_baseColor.png"
    },
    {
      "uri": "textures/bolt_metallicRoughness.png"
    },
    {
      "uri": "textures/bolt_normal.png"
    },
    {
      "uri": "textures/korpus_baseColor.png"
    },
    {
      "uri": "textures/korpus_metallicRoughness.png"
    },
    {
      "uri": "textures/korpus_normal.png"
    }
  ],
  "materials": [
    {
      "doubleSided": true,
      "name": "kurki",
      "normalTexture": {
        "index": 2
      },
      "pbrMetallicRoughness": {
        "baseColorTexture": {
          "index": 0
        },
        "metallicRoughnessTexture": {
          "index": 1
        }
      }
    },
    {
      "doubleSided": true,
      "name": "bolt",
      "normalTexture": {
        "index": 5
      },
      "pbrMetallicRoughness": {
        "baseColorTexture": {
          "index": 3
        },
        "metallicRoughnessTexture": {
          "index": 4
        }
      }
    },
    {
      "doubleSided": true,
      "name": "korpus",
      "normalTexture": {
        "index": 8
      },
      "pbrMetallicRoughness": {
        "baseColorTexture": {
          "index": 6
        },
        "metallicRoughnessTexture": {
          "index": 7
        }
      }
    }
  ],
  "meshes": [
    {
      "name": "kurki_low_kurki_0",
      "primitives": [
        {
          "attributes": {
            "NORMAL": 1,
            "POSITION": 0,
            "TANGENT": 2,
            "TEXCOORD_0": 3,
            "TEXCOORD_1": 4,
            "TEXCOORD_2": 5,
            "TEXCOORD_3": 6,
            "TEXCOORD_4": 7,
            "TEXCOORD_5": 8,
            "TEXCOORD_6": 9,
            "TEXCOORD_7": 10,
            "TEXCOORD_8": 11,
            "TEXCOORD_9": 12
          },
          "indices": 13,
          "material": 0,
          "mode": 4
        }
      ]
    },
    {
      "name": "bolt_low_bolt_0",
      "primitives": [
        {
          "attributes": {
            "NORMAL": 15,
            "POSITION": 14,
            "TANGENT": 16,
            "TEXCOORD_0": 17,
            "TEXCOORD_1": 18,
            "TEXCOORD_2": 19,
            "TEXCOORD_3": 20,
            "TEXCOORD_4": 21,
            "TEXCOORD_5": 22,
            "TEXCOORD_6": 23,
            "TEXCOORD_7": 24,
            "TEXCOORD_8": 25,
            "TEXCOORD_9": 26
          },
          "indices": 27,
          "material": 1,
          "mode": 4
        }
      ]
    },
    {
      "name": "korpus_low_korpus_0",
      "primitives": [
        {
          "attributes": {
            "NORMAL": 29,
            "POSITION": 28,
            "TANGENT": 30,
            "TEXCOORD_0": 31,
            "TEXCOORD_1": 32,
            "TEXCOORD_2": 33,
            "TEXCOORD_3": 34,
            "TEXCOORD_4": 35,
            "TEXCOORD_5": 36,
            "TEXCOORD_6": 37,
            "TEXCOORD_7": 38,
            "TEXCOORD_8": 39,
            "TEXCOORD_9": 40
          },
          "indices": 41,
          "material": 2,
          "mode": 4
        }
      ]
    },
    {
      "name": "ruk_low_bolt_0",
      "primitives": [
        {
          "attributes": {
            "NORMAL": 43,
            "POSITION": 42,
            "TANGENT": 44,
            "TEXCOORD_0": 45,
            "TEXCOORD_1": 46,
            "TEXCOORD_2": 47,
            "TEXCOORD_3": 48,
            "TEXCOORD_4": 49,
            "TEXCOORD_5": 50,
            "TEXCOORD_6": 51,
            "TEXCOORD_7": 52,
            "TEXCOORD_8": 53,
            "TEXCOORD_9": 54
          },
          "indices": 55,
          "material": 1,
          "mode": 4
        }
      ]
    }
  ],
  "nodes": [
    {
      "children": [
        1
      ],
      "matrix": [
        1.0,
        0.0,
        0.0,
        0.0,
        0.0,
        2.220446049250313e-16,
        -1.0,
        0.0,
        0.0,
        1.0,
        2.220446049250313e-16,
        0.0,
        0.0,
        0.0,
        0.0,
        1.0
      ],
      "name": "Sketchfab_model"
    },
    {
      "children": [
        2
      ],
      "matrix": [
        0.009999999776482582,
        0.0,
        0.0,
        0.0,
        0.0,
        0.0,
        0.009999999776482582,
        0.0,
        0.0,
        -0.009999999776482582,
        0.0,
        0.0,
        0.0,
        0.0,
        0.0,
        1.0
      ],
      "name": "8e09b13a26df4f09a9e803570705f1de.fbx"
    },
    {
      "children": [
        3,
        5,
        7,
        9
      ],
      "name": "RootNode"
    },
    {
      "children": [
        4
      ],
      "matrix": [
        0.0,
        0.0,
        -100.0,
        0.0,
        -100.0,
        0.0,
        0.0,
        0.0,
        0.0,
        100.0,
        0.0,
        0.0,
        146.5194854736328,
        1.862645149230957e-07,
        -191.8294677734375,
        1.0
      ],
      "name": "kurki_low"
    },
    {
      "mesh": 0,
      "name": "kurki_low_kurki_0"
    },
    {
      "children": [
        6
      ],
      "matrix": [
        0.0,
        0.0,
        -100.0,
        0.0,
        -100.0,
        0.0,
        0.0,
        0.0,
        0.0,
        100.0,
        0.0,
        0.0,
        146.5194854736328,
        1.862645149230957e-07,
        -191.8294677734375,
        1.0
      ],
      "name": "bolt_low"
    },
    {
      "mesh": 1,
      "name": "bolt_low_bolt_0"
    },
    {
      "children": [
        8
      ],
      "matrix": [
        100.0,
        0.0,
        0.0,
        0.0,
        0.0,
        -1.331580541386046e-05,
        -99.99999999999912,
        0.0,
        0.0,
        99.99999999999912,
        -1.331580541386046e-05,
        0.0,
        146.51947021484375,
        35.520137786865234,
        -151.06442260742188,
        1.0
      ],
      "name": "korpus_low"
    },
    {
      "mesh": 2,
      "name": "korpus_low_korpus_0"
    },
    {
      "children": [
        10
      ],
      "matrix": [
        0.0,
        0.0,
        -100.0,
        0.0,
        -100.0,
        0.0,
        0.0,
        0.0,
        0.0,
        100.0,
        0.0,
        0.0,
        146.5194854736328,
        1.862645149230957e-07,
        -191.8294677734375,
        1.0
      ],
      "name": "ruk_low"
    },
    {
      "mesh": 3,
      "name": "ruk_low_bolt_0"
    }
  ],
  "samplers": [
    {
      "magFilter": 9729,
      "minFilter": 9987,
      "wrapS": 10497,
      "wrapT": 10497
    }
  ],
  "scene": 0,
  "scenes": [
    {
      "name": "Sketchfab_Scene",
      "nodes": [
        0
      ]
    }
  ],
  "textures": [
    {
      "sampler": 0,
      "source": 0
    },
    {
      "sampler": 0,
      "source": 1
    },
    {
      "sampler": 0,
      "source": 2
    },
    {
      "sampler": 0,
      "source": 3
    },
    {
      "sampler": 0,
      "source": 4
    },
    {
      "sampler": 0,
      "source": 5
    },
    {
      "sampler": 0,
      "source": 6
    },
    {
      "sampler": 0,
      "source": 7
    },
    {
      "sampler": 0,
      "source": 8
    }
  ]
}
